# xmcd
#
# Track frame offsets: 
#        150
#        24450
#        49935
#        63825
#        76487
#        88270
#        102117
#        111117
#        130257
#        150032
#        167420
#        187047
#        201495
#
# Disc length: 4423 seconds
#
# Revision: 5
# Processed by: cddbd v1.5.2PL0 Copyright (c) Steve Scherf et al.
# Submitted via: ExactAudioCopyFreeDBPlugin 1.0
#
DISCID=a311450d
DTITLE=Keiji Haino - Watashi Dake?
DYEAR=1981
DGENRE=Avant-garde
TTITLE0=おれのありか
TTITLE1=ゆるされざる者達
TTITLE2=よみがえる
TTITLE3=露わにさせろ
TTITLE4=終わりにさせろ
TTITLE5=うまくできない
TTITLE6=もっと　もっと　もっと
TTITLE7=つきぬけても
TTITLE8=くずれてゆく
TTITLE9=ここまで　きてみろ
TTITLE10=わらいたいのに
TTITLE11=還りたい
TTITLE12=捧げる
EXTD=
EXTT0=
EXTT1=
EXTT2=
EXTT3=
EXTT4=
EXTT5=
EXTT6=
EXTT7=
EXTT8=
EXTT9=
EXTT10=
EXTT11=
EXTT12=
PLAYORDER=
